<svg width="1383" height="1205" viewBox="0 0 1383 1205" fill="none" xmlns="http://www.w3.org/2000/svg">
<path d="M846.971 55.0971C863.337 39.7922 866.453 37.7817 875.366 36.7464C897.451 34.1819 914.708 38.1965 929.069 49.243C939.916 57.5856 940.024 57.9307 939.018 81.1002L938.297 97.7791L931.87 110.095C928.334 116.871 924.914 123.209 924.268 124.184C923.624 125.159 922.354 127.525 921.45 129.446C919.191 134.249 917.15 134.563 887.617 134.636L861.739 134.699L858.214 130.327C853.28 124.21 848.485 117.175 848.485 116.054C848.485 115.535 847.3 114.107 845.854 112.885C844.408 111.659 842.4 109.054 841.391 107.094C840.382 105.134 838.861 102.202 838.011 100.578C836.951 98.5548 836.589 92.3841 836.86 80.9039L837.253 64.1806L846.971 55.0971Z" fill="black" fill-opacity="0.93"/>
<path d="M858.244 154.87C858.57 151.302 859.413 147.715 860.124 146.904C861.57 145.255 873.212 144.868 874.248 146.436C874.614 146.99 874.096 154.294 873.097 162.665C869.294 194.538 869.575 289.926 873.639 346.076C874.18 353.542 874.174 360.71 873.625 362.011C872.975 363.55 872.596 363.756 872.531 362.6C872.477 361.625 869.46 357.807 865.823 354.112C862.19 350.42 857.405 345.108 855.19 342.312C852.979 339.513 849.288 335.274 846.985 332.893C833.907 319.352 825.848 308.622 824.483 302.932C823.762 299.915 822.407 296.036 821.479 294.317C820.551 292.601 819.488 287.903 819.116 283.879C818.743 279.855 817.473 274.811 816.295 272.668C815.116 270.521 813.66 264.847 813.057 260.054C812.455 255.26 811.151 250.48 810.165 249.432C809.177 248.38 807.988 245.838 807.517 243.78C806.976 241.383 804.453 238.198 800.511 234.928C790.996 227.035 787.582 224.508 786.427 224.508C783.664 224.508 785.808 222.244 789.238 221.538C791.368 221.101 793.413 220.003 793.786 219.097C794.158 218.192 796.817 216.865 799.698 216.15C802.577 215.431 805.784 214.139 806.827 213.278C807.866 212.414 810.423 211.312 812.505 210.831C821.303 208.789 842.078 193.433 842.159 188.912C842.166 188.484 844.689 185.249 847.764 181.718C853.815 174.775 857.242 165.996 858.244 154.87Z" fill="black" fill-opacity="0.93"/>
<path d="M903.117 161.066C901.769 153.113 900.949 146.344 901.295 146.018C902.663 144.739 915.28 145.486 916.252 146.904C918.636 150.384 920.455 157.248 921.223 165.682C922.009 174.326 922.287 174.959 927.556 180.097C930.583 183.055 933.062 185.872 933.062 186.36C933.062 186.848 934.21 188.326 935.612 189.65C937.014 190.97 940.495 194.864 943.343 198.306C946.76 202.428 949.743 204.79 952.093 205.227C954.054 205.594 956.627 206.895 957.809 208.12C958.994 209.343 961.219 210.343 962.753 210.343C964.29 210.343 966.898 211.331 968.554 212.534C970.21 213.737 973.65 215.358 976.2 216.134C978.747 216.913 981.469 218.265 982.248 219.142C983.023 220.019 985.059 221.063 986.765 221.462C990.385 222.314 990.822 224.052 987.659 225.04C986.447 225.417 983.179 227.643 980.402 229.986C977.629 232.325 974.168 235.115 972.716 236.182C968.879 239.003 963.803 250.923 962.177 260.918C961.405 265.689 959.932 271.107 958.91 272.959C957.887 274.808 957.047 278.449 957.047 281.048C957.047 288.976 950.18 306.627 944.203 314.055C939.442 319.972 921.914 339.903 918.551 343.221C917.844 343.92 915.277 347.232 912.856 350.575C910.431 353.919 907.532 356.943 906.418 357.294C905.301 357.642 903.74 359.114 902.944 360.561C901.2 363.737 901.725 347.479 904.061 326.013C906.781 301.029 906.076 178.53 903.117 161.066Z" fill="black" fill-opacity="0.93"/>
<path d="M1007.33 239.566C1005.9 233.889 1005.05 228.482 1005.44 227.544C1006.21 225.661 1012.06 226.626 1019.75 229.906C1021.95 230.844 1025.64 231.952 1027.96 232.366C1030.27 232.781 1033.67 234.105 1035.51 235.305C1037.35 236.508 1039.6 237.492 1040.5 237.492C1041.41 237.492 1045.3 240.611 1049.14 244.423C1056.45 251.657 1057.96 253.342 1062.97 259.889L1066 263.856L1063.91 278.765C1062.76 286.966 1061.83 296.439 1061.83 299.81C1061.83 306.437 1059.74 307.884 1055.62 304.123C1054.52 303.119 1050.21 300.194 1046.05 297.62C1028.93 287.048 1027.3 285.785 1021.05 278.211C1014.59 270.401 1011.13 263.286 1010.52 256.596C1010.19 252.905 1008.75 245.24 1007.33 239.566Z" fill="black" fill-opacity="0.93"/>
<path d="M759.486 229.2C760.18 228.706 761.887 228.042 763.275 227.722C767.606 226.728 770.038 226.826 770.833 228.026C771.741 229.4 769.181 243.464 767.711 245.164C767.153 245.813 766.059 250.21 765.28 254.941C762.882 269.552 752.71 282.923 736.764 292.427C732.598 294.909 726.269 299.225 722.7 302.017C714.38 308.52 713.967 307.992 712.853 289.483C712.365 281.4 711.437 273.867 710.794 272.74C707.953 267.773 709.412 261.384 714.461 256.717C735.965 236.84 740.143 233.987 751.281 231.594C755.101 230.771 758.792 229.694 759.486 229.2Z" fill="black" fill-opacity="0.93"/>
<path d="M777.958 254.016C778.639 250.445 780.302 245.265 781.656 242.507C786.234 233.171 796.634 241.573 799.248 256.726C800.054 261.403 801.808 268.036 803.139 271.468C804.473 274.9 805.564 279.829 805.564 282.422C805.564 285.015 806.464 289.112 807.561 291.525C808.662 293.94 810.094 299.332 810.748 303.512C811.398 307.691 812.732 311.94 813.708 312.956C814.686 313.969 816.945 316.284 818.729 318.098C820.514 319.912 821.974 321.755 821.974 322.188C821.974 322.622 823.101 324.059 824.479 325.38C825.858 326.7 830.26 331.487 834.262 336.015C838.265 340.545 845.092 347.656 849.43 351.817C853.771 355.977 857.32 359.763 857.32 360.229C857.32 360.694 858.6 362.404 860.161 364.028C870.401 374.669 872.091 379.368 870.249 392.032C869.369 398.073 869.06 398.513 865.048 399.482C862.697 400.052 859.575 401.23 858.102 402.1C856.633 402.971 852.87 404.051 849.745 404.5C846.623 404.95 842.776 406.083 841.198 407.017C839.616 407.955 835.316 409.24 831.635 409.876C827.954 410.513 822.736 412.086 820.037 413.372C817.338 414.66 813.447 415.711 811.391 415.711C809.336 415.711 806.701 416.519 805.536 417.507C802.391 420.166 796.925 412.406 795.882 403.797C795.455 400.289 794.125 395.559 792.926 393.286C791.727 391.016 790.332 386.507 789.827 383.272C789.323 380.033 788.09 375.904 787.088 374.093C786.085 372.285 784.673 367.761 783.945 364.047C783.221 360.33 781.859 355.695 780.925 353.748C779.99 351.801 778.568 347.102 777.762 343.309C776.959 339.516 775.493 334.606 774.508 332.402C773.522 330.195 772.147 322.942 771.457 316.284C770.762 309.625 769.557 300.675 768.778 296.394C767.505 289.423 767.64 287.855 770.051 281.343C771.531 277.341 772.747 272.611 772.75 270.828C772.753 269.046 773.647 265.993 774.738 264.046C775.828 262.099 777.278 257.584 777.958 254.016Z" fill="black" fill-opacity="0.93"/>
<path d="M975.983 259.997C975.983 254.95 980.267 245.474 984.422 241.32C990.375 235.374 994.76 239.851 997.446 254.605C998.035 257.85 999.413 262.482 1000.51 264.895C1001.6 267.307 1002.49 270.378 1002.49 271.718C1002.49 273.057 1003.63 277.299 1005.01 281.146C1007.27 287.409 1007.4 289.29 1006.24 299.111C1005.53 305.142 1004.35 315.388 1003.62 321.881C1002.89 328.372 1001.45 334.913 1000.42 336.417C999.386 337.921 997.988 342.35 997.314 346.26C996.64 350.173 995.329 354.52 994.398 355.92C993.47 357.322 992.018 361.923 991.171 366.14C990.324 370.36 989.119 374.397 988.492 375.11C987.866 375.825 986.779 379.225 986.081 382.667C985.384 386.112 983.982 390.487 982.966 392.39C981.95 394.296 980.46 399.127 979.661 403.126C977.866 412.08 972.763 419.951 970.26 417.614C969.35 416.759 965.642 415.734 962.022 415.335C958.402 414.933 954.524 413.837 953.403 412.9C952.283 411.966 948.006 410.62 943.898 409.917C939.787 409.215 935.527 407.898 934.43 406.992C933.329 406.087 929.306 404.966 925.49 404.5C921.67 404.035 917.695 402.962 916.652 402.113C915.612 401.265 912.771 400.096 910.34 399.514L905.921 398.459L905.291 389.677C904.532 379.124 905.358 375.527 909.686 370.525C911.494 368.439 914.227 365.263 915.758 363.468C917.292 361.673 919.54 359.298 920.756 358.19C921.972 357.082 922.964 355.815 922.964 355.375C922.964 354.932 926.729 350.965 931.335 346.551C938.175 339.998 948.405 329.075 961.751 314.07C962.682 313.022 964.026 308.793 964.737 304.67C965.445 300.548 966.542 296.597 967.169 295.891C967.795 295.182 968.953 290.651 969.742 285.816C970.531 280.985 972.258 273.994 973.579 270.28C974.903 266.57 975.983 261.941 975.983 259.997Z" fill="black" fill-opacity="0.93"/>
<path d="M740.82 302.407C742.923 302.407 748.694 298.607 753.634 293.975C758.128 289.764 758.656 291.252 758.768 308.457C758.839 319.545 758.477 322.476 756.878 323.714C755.791 324.56 754.014 326.855 752.927 328.818C751.843 330.781 750.319 333.032 749.54 333.821C748.761 334.612 746.421 338.025 744.339 341.41C742.256 344.794 739.557 348.556 738.342 349.771C737.126 350.984 736.134 352.437 736.134 352.998C736.134 353.561 735.05 355.306 733.729 356.876C732.409 358.446 730.672 362.103 729.869 365.003C729.067 367.9 727.587 371.953 726.581 374.011C725.575 376.066 724.39 380.315 723.95 383.452C723.51 386.59 722.175 391.016 720.983 393.286C719.791 395.559 718.464 399.944 718.031 403.034C717.597 406.121 716.412 409.838 715.399 411.295C714.383 412.751 712.995 417.13 712.314 421.024C711.634 424.918 710.252 429.965 709.243 432.235C708.234 434.509 707.022 438.89 706.544 441.974C706.07 445.058 705.183 447.581 704.573 447.581C703.964 447.581 703.114 445.058 702.684 441.974C702.254 438.89 700.838 433.977 699.534 431.057C694.198 419.086 694.353 388.413 699.802 378.535C700.875 376.585 702.159 371.009 702.653 366.14C703.144 361.274 704.346 356.116 705.318 354.682C706.29 353.251 707.597 346.612 708.224 339.931C709.954 321.479 712.372 318.117 730.682 308.688C733.425 307.276 736.411 305.285 737.319 304.262C738.227 303.242 739.801 302.407 740.82 302.407Z" fill="black" fill-opacity="0.93"/>
<path d="M1016.44 320.121L1017.23 307.134C1017.67 299.988 1018.15 294.143 1018.31 294.143C1019.88 294.143 1030.3 299.256 1031.52 300.621C1032.39 301.602 1033.78 302.407 1034.62 302.407C1035.45 302.407 1037.47 303.733 1039.1 305.357C1040.73 306.978 1042.79 308.308 1043.68 308.308C1044.56 308.308 1046.72 309.502 1048.48 310.961C1050.24 312.424 1054.3 315.448 1057.51 317.68C1064.59 322.619 1065.66 324.927 1066.89 337.946C1067.42 343.534 1068.72 349.907 1069.79 352.108C1070.85 354.308 1072.11 359.827 1072.58 364.37C1073.05 368.914 1074.44 374.758 1075.67 377.354C1076.9 379.95 1078.23 385.526 1078.63 389.746C1079.03 393.967 1080.49 399.821 1081.88 402.756C1084.45 408.173 1084.1 414.787 1081.06 418.403C1080.39 419.194 1079.5 422.699 1079.08 426.188C1078.66 429.68 1077.53 433.663 1076.57 435.04C1075.62 436.421 1074.11 440.378 1073.23 443.839C1071.33 451.295 1070.09 450.643 1068.25 441.221C1067.51 437.399 1066.36 433.673 1065.71 432.938C1065.06 432.204 1063.85 427.895 1063.03 423.361C1062.2 418.83 1060.71 414.249 1059.7 413.179C1058.7 412.112 1057.4 408.065 1056.82 404.19C1056.23 400.315 1054.9 395.604 1053.86 393.726C1052.82 391.845 1051.57 387.657 1051.07 384.421C1050.57 381.182 1049.1 376.876 1047.79 374.853C1046.48 372.83 1045.41 369.081 1045.41 366.526C1045.41 363.42 1044.37 360.549 1042.26 357.88C1040.52 355.679 1039.1 353.479 1039.1 352.988C1039.1 352.206 1032.71 342.819 1029.97 339.586C1029.43 338.937 1026.16 334.289 1022.71 329.261L1016.44 320.121Z" fill="black" fill-opacity="0.93"/>
<path d="M751.484 348.435C752.138 348.435 753.512 346.558 754.538 344.259C757.945 336.642 758.856 340.852 758.846 364.145C758.839 384.975 758.633 387.081 756.269 390.335C754.853 392.282 752.866 395.471 751.85 397.418C750.834 399.365 748.619 403.082 746.929 405.681C745.24 408.277 742.937 412.324 741.816 414.67C739.933 418.618 731.823 424.681 725.717 426.707C724.502 427.113 723.51 427.99 723.51 428.658C723.51 429.329 722.941 429.877 722.246 429.877C720.259 429.877 720.773 423.785 722.954 421.534C724.041 420.413 725.257 416.389 725.66 412.59C726.066 408.79 727.367 404.352 728.555 402.73C729.744 401.106 731.065 396.924 731.491 393.432C731.918 389.943 733.106 385.884 734.136 384.415C735.165 382.946 736.405 378.896 736.889 375.417C737.441 371.434 738.867 367.856 740.736 365.754C742.371 363.921 743.706 361.745 743.706 360.919C743.706 360.096 744.857 358.18 746.266 356.661C747.674 355.144 749.154 352.671 749.561 351.171C749.963 349.667 750.827 348.435 751.484 348.435Z" fill="black" fill-opacity="0.93"/>
<path d="M1018.87 393.85C1016.3 391.678 1014.86 343.173 1017.29 340.897C1018.46 339.804 1021.43 343.556 1021.43 346.118C1021.43 347.191 1022.57 349.034 1023.95 350.208C1025.34 351.383 1026.48 352.991 1026.48 353.786C1026.48 354.581 1027.29 355.86 1028.29 356.632C1031.54 359.156 1037.46 371.32 1038.28 377.155C1038.72 380.292 1039.88 384.541 1040.86 386.599C1041.84 388.654 1043.28 393.609 1044.07 397.611C1044.85 401.61 1046.3 406.391 1047.28 408.233C1049.6 412.583 1051.69 425.032 1050.25 425.868C1048.75 426.733 1041.63 425.21 1041.63 424.022C1041.63 423.506 1039.92 422.42 1037.84 421.613C1035.76 420.806 1034.05 419.394 1034.05 418.472C1034.05 417.551 1033.01 415.357 1031.73 413.6C1026.12 405.903 1022.89 400.783 1022.16 398.459C1021.72 397.085 1020.24 395.008 1018.87 393.85Z" fill="black" fill-opacity="0.93"/>
<path d="M854.557 414.91C856.158 413.97 859.853 412.77 862.762 412.241C867.313 411.412 872.115 411.659 873.507 412.799C873.733 412.979 873.283 415.173 872.511 417.668C869.487 427.432 869.355 474.214 872.318 485.511C873.791 491.115 874.993 499.084 874.997 503.213C874.997 507.344 875.874 514.709 876.944 519.578C879.778 532.467 881.61 549.273 880.313 550.486C879.673 551.081 877.36 548.811 874.875 545.148C872.498 541.643 868.417 536.447 865.81 533.601C863.205 530.758 858.8 525.119 856.02 521.069C853.24 517.023 848.986 511.862 846.568 509.602C844.151 507.341 842.173 505.046 842.173 504.501C842.173 503.225 837.215 496.909 830.517 489.652C827.612 486.499 824.642 482.991 823.917 481.854C820.216 476.022 815.513 470.045 812.143 466.894C808.51 463.497 808.323 462.798 806.911 446.945C805.31 428.949 805.743 427.515 812.753 427.515C814.358 427.515 817.792 426.454 820.382 425.156C822.973 423.858 826.528 422.794 828.286 422.794C830.043 422.794 833.582 421.74 836.149 420.454C838.716 419.169 843.253 417.776 846.23 417.364C849.206 416.953 852.952 415.848 854.557 414.91Z" fill="black" fill-opacity="0.93"/>
<path d="M904.061 420.432C903.228 415.208 903.401 413.666 904.945 412.526C907.184 410.871 912.574 411.605 919.808 414.543C922.584 415.67 926.878 416.934 929.347 417.345C931.816 417.757 936.055 419.153 938.764 420.445C941.477 421.737 945.307 422.794 947.277 422.794C949.248 422.794 952.645 423.658 954.829 424.713C957.01 425.767 961.382 427.227 964.548 427.961C971.11 429.478 970.633 427.03 968.957 450.529C968.127 462.199 968.056 462.402 962.851 468.234C957.921 473.765 954.324 478.346 951.368 482.871C950.674 483.934 948.971 485.948 947.579 487.351C942.432 492.549 933.062 503.884 933.062 504.913C933.062 505.277 930.434 508.589 927.224 512.274C924.01 515.963 921.074 519.737 920.692 520.661C920.312 521.589 918.964 523.45 917.695 524.799C909.937 533.047 900.154 545.692 898.603 549.476C898.115 550.666 897.004 551.42 896.137 551.147C894.055 550.498 894.79 535.789 897.174 530.428C898.129 528.282 899.5 518.771 900.218 509.292C900.939 499.812 902.104 491.406 902.805 490.615C906.615 486.325 907.417 441.534 904.061 420.432Z" fill="black" fill-opacity="0.93"/>
<path d="M683.226 432.761C683.944 432.346 685.126 430.598 685.854 428.876C687.418 425.181 689.172 427.657 689.335 433.787C689.386 435.613 690.513 439.6 691.844 442.639C696.659 453.638 696.385 460.265 690.706 470.14C687.95 474.933 684.862 480.493 683.846 482.491C682.83 484.492 681.167 486.771 680.155 487.556C679.142 488.342 677.926 490.425 677.459 492.185C676.988 493.942 675.817 496.197 674.858 497.194C673.897 498.191 672.187 500.848 671.059 503.096C669.931 505.343 667.368 509.839 665.36 513.085C663.355 516.33 661.12 520.249 660.389 521.798C659.661 523.343 657.944 526.078 656.572 527.88C655.201 529.681 654.08 531.92 654.08 532.854C654.08 533.791 652.993 535.472 651.669 536.596C650.341 537.717 648.875 540.056 648.415 541.795C647.951 543.53 646.782 545.768 645.824 546.765C644.862 547.763 643.162 550.419 642.045 552.667C635.022 566.816 630.332 572.23 624.091 573.399C621.839 573.82 619.997 573.699 620 573.133C620.024 569.985 622.821 563.391 624.372 562.836C625.364 562.479 626.793 560.038 627.552 557.407C628.31 554.776 629.451 552.626 630.091 552.626C630.731 552.626 631.937 550.501 632.766 547.902C633.6 545.306 634.778 543.181 635.387 543.181C635.997 543.181 637.619 540.924 638.997 538.166C640.372 535.409 643.762 529.175 646.525 524.321C649.292 519.464 651.554 514.633 651.554 513.585C651.554 512.534 652.404 510.08 653.447 508.13C654.486 506.179 655.837 499.993 656.444 494.379C657.053 488.766 658.242 483.399 659.082 482.449C659.925 481.5 661.13 476.89 661.757 472.201C662.468 466.92 663.775 462.75 665.194 461.233C666.454 459.891 668.17 457.466 669.01 455.842C669.85 454.217 671.929 450.766 673.632 448.17C675.332 445.574 677.893 441.214 679.322 438.482C680.754 435.75 682.508 433.176 683.226 432.761Z" fill="black" fill-opacity="0.93"/>
<path d="M1085.81 436.187C1085.81 432.821 1086.18 429.167 1086.63 428.062C1087.57 425.773 1095.75 433.638 1095.89 436.956C1095.95 438.504 1101.34 446.999 1104.57 450.621C1105.19 451.32 1106.1 453.065 1106.58 454.496C1107.07 455.927 1108.76 458.403 1110.34 459.999C1112.51 462.183 1113.42 464.897 1114.02 470.972C1114.46 475.411 1115.65 480.594 1116.65 482.491C1117.66 484.387 1119.06 490.187 1119.75 495.38C1121.6 509.117 1124.94 519.043 1130.96 528.611C1133.88 533.256 1136.84 538.435 1137.52 540.12C1138.21 541.804 1139.35 543.181 1140.06 543.181C1140.77 543.181 1141.35 544.169 1141.35 545.379C1141.35 546.585 1142.78 549.529 1144.51 551.923C1146.25 554.313 1147.67 556.735 1147.67 557.308C1147.67 557.878 1149.04 559.87 1150.72 561.735C1152.39 563.596 1154.15 567.054 1154.63 569.416C1155.1 571.774 1156.28 573.991 1157.26 574.342C1159.34 575.086 1159.66 578.591 1157.65 578.591C1156.89 578.591 1155.98 577.578 1155.64 576.34C1155.24 574.934 1153.47 573.82 1150.9 573.37C1146.7 572.635 1138.83 565.065 1138.83 561.769C1138.83 560.88 1137.72 559.034 1136.36 557.669C1134.99 556.302 1133.53 553.851 1133.09 552.221C1132.65 550.59 1131.21 548.339 1129.88 547.218C1128.55 546.094 1127.47 544.267 1127.47 543.159C1127.47 542.048 1126.4 539.863 1125.08 538.306C1123.77 536.745 1121.82 533.62 1120.74 531.359C1119 527.731 1117.3 524.748 1113.37 518.397C1112.76 517.422 1111.36 514.775 1110.26 512.515C1109.16 510.254 1107.18 507.129 1105.87 505.568C1104.56 504.01 1103.48 501.826 1103.48 500.715C1103.48 499.607 1102.35 497.735 1100.96 496.561C1099.57 495.386 1098.43 493.784 1098.43 492.999C1098.43 491.622 1092.94 484.365 1088.99 480.528C1087.94 479.502 1087.07 478.058 1087.07 477.324C1087.07 476.589 1085.31 474.113 1083.16 471.818C1078.61 466.974 1078.75 454.626 1083.44 446.432C1084.88 443.918 1085.81 439.913 1085.81 436.187Z" fill="black" fill-opacity="0.93"/>
<path d="M717.59 443.842C719.08 443.095 721.065 441.772 721.996 440.901C724.129 438.906 729.703 438.837 730.506 440.796C732.145 444.786 724.326 471.802 720.343 475.918C719.307 476.988 718.461 478.277 718.461 478.78C718.461 479.283 717.038 481.275 715.305 483.203C713.567 485.131 712.148 487.427 712.148 488.307C712.148 489.184 711.407 490.602 710.503 491.46C708.931 492.951 695.969 512.347 694.079 516.035C693.578 517.01 691.485 520.196 689.423 523.118C687.364 526.04 684.98 529.757 684.13 531.378C683.277 533.002 681.279 535.833 679.691 537.666C678.102 539.502 676.802 541.516 676.802 542.14C676.802 542.767 675.752 544.717 674.472 546.474C673.192 548.234 670.548 552.062 668.597 554.984C666.643 557.907 663.998 561.735 662.718 563.495C661.438 565.252 660.389 567.383 660.389 568.225C660.389 569.067 659.051 572.142 657.415 575.058C655.776 577.974 654.06 581.83 653.599 583.622C652.783 586.791 652.654 586.835 649.17 585.151C643.108 582.219 641.713 568.01 647.03 563.34C648.706 561.868 650.423 559.373 650.849 557.793C651.273 556.216 652.739 553.876 654.11 552.594C655.482 551.312 656.603 549.282 656.603 548.086C656.603 546.889 657.741 544.948 659.129 543.773C660.517 542.599 661.652 541.044 661.652 540.322C661.652 539.601 663.074 537.055 664.808 534.668C666.545 532.277 667.964 529.583 667.964 528.674C667.964 527.766 669.102 526.062 670.49 524.888C671.878 523.713 673.013 521.813 673.013 520.664C673.013 519.518 674.435 517.001 676.169 515.07C677.906 513.142 679.325 510.814 679.325 509.899C679.325 508.981 680.747 506.433 682.481 504.232C684.218 502.035 685.637 499.341 685.637 498.248C685.637 497.153 686.507 495.586 687.571 494.759C688.634 493.936 691.262 489.754 693.412 485.47C695.559 481.183 697.824 476.88 698.447 475.905C699.067 474.933 700.476 472.277 701.58 470.004C702.68 467.733 704.373 465.451 705.342 464.931C706.307 464.412 707.099 462.513 707.099 460.711C707.099 458.761 708.349 456.336 710.188 454.718C711.888 453.226 713.638 450.472 714.079 448.601C714.519 446.73 716.097 444.589 717.59 443.842Z" fill="black" fill-opacity="0.93"/>
<path d="M1045.36 451.83C1044.84 447.869 1043.98 443.355 1043.45 441.794C1042.53 439.068 1042.69 438.982 1047.42 439.581C1054.73 440.502 1061.7 445.071 1061.77 448.968C1061.8 450.893 1063.06 453.04 1064.98 454.452C1067.04 455.968 1068.14 457.95 1068.14 460.176C1068.14 462.12 1069.22 464.447 1070.66 465.6C1072.05 466.711 1073.19 468.933 1073.19 470.539C1073.19 472.141 1074.24 474.404 1075.53 475.566C1076.82 476.725 1078.29 479.271 1078.78 481.218C1079.28 483.165 1080.72 485.821 1081.97 487.119C1083.23 488.418 1084.68 490.808 1085.21 492.429C1085.72 494.053 1086.57 495.646 1087.1 495.972C1088.07 496.586 1091.45 502.418 1095.8 511.02C1097.2 513.778 1098.86 516.035 1099.49 516.035C1100.13 516.035 1100.97 517.565 1101.37 519.436C1101.77 521.304 1102.94 523.615 1103.96 524.574C1104.98 525.53 1106.75 528.117 1107.89 530.321C1111.34 536.982 1115.35 543.701 1117.68 546.737C1118.9 548.317 1119.9 550.337 1119.9 551.23C1119.9 552.119 1120.96 554.26 1122.25 555.982C1123.55 557.707 1125.05 560.433 1125.59 562.045C1126.12 563.653 1127.66 566.363 1129.01 568.064C1131.97 571.819 1130.53 578.866 1125.71 584.1L1122.78 587.285L1121.21 581.168C1120.35 577.803 1119.22 575.048 1118.71 575.048C1117.43 575.048 1114.85 569.536 1114.85 566.791C1114.85 565.556 1113.98 564.09 1112.91 563.533C1111.02 562.542 1108.13 558.255 1104.14 550.508C1103.04 548.371 1101.31 546.322 1100.29 545.955C1099.27 545.591 1098.43 544.457 1098.43 543.438C1098.43 541.757 1090.27 529.311 1084.33 521.937C1083.02 520.316 1081.09 517.394 1080.05 515.446C1079 513.499 1076.48 509.516 1074.45 506.594C1072.42 503.672 1069.88 499.689 1068.81 497.742C1067.74 495.794 1065.19 491.812 1063.13 488.889C1061.07 485.967 1058.55 481.851 1057.52 479.742C1056.49 477.634 1055.07 475.905 1054.36 475.905C1053.66 475.905 1052.48 473.648 1051.74 470.89C1051 468.132 1049.47 464.333 1048.35 462.452C1047.23 460.572 1045.88 455.791 1045.36 451.83Z" fill="black" fill-opacity="0.93"/>
<path d="M846.274 553.414C848.532 552.531 851.177 550.907 852.156 549.805C854.577 547.076 857.858 547.899 858.383 551.369C858.624 552.939 859.579 555.323 860.51 556.669C861.441 558.014 863.046 562.301 864.076 566.199C865.105 570.093 866.822 575.403 867.892 577.999C868.959 580.598 869.863 584.315 869.897 586.262C869.934 588.209 871.089 591.398 872.47 593.345C873.849 595.292 874.98 598.753 874.986 601.032C874.99 603.315 876.168 607.231 877.604 609.736C881.292 616.166 882.176 628.403 879.453 635.245C876.961 641.511 875.352 646.472 874.438 650.708C873.493 655.096 865.393 660.029 859.128 660.029C856.379 660.029 851.98 661.106 849.359 662.419C846.734 663.733 841.916 665.136 838.648 665.538C835.377 665.937 830.595 667.254 828.022 668.46C825.445 669.667 821.754 670.658 819.817 670.664C817.88 670.667 813.454 671.981 809.983 673.577C806.512 675.172 802.248 676.499 800.514 676.524C798.777 676.547 795.777 677.338 793.847 678.278C787.03 681.606 784.148 678.807 784.121 668.837C784.108 664.069 783.268 660.175 781.578 657.078C779.252 652.81 779.052 650.119 779.052 622.745V593.041L782.75 591.61C784.782 590.822 787.426 589.162 788.625 587.925C789.824 586.687 791.483 585.673 792.309 585.673C793.136 585.673 794.839 584.61 796.095 583.312C797.352 582.013 799.102 580.95 799.983 580.95C800.863 580.95 803.271 579.623 805.333 577.999C807.396 576.378 809.451 575.048 809.898 575.048C810.348 575.048 812.255 574.063 814.134 572.857C824.005 566.534 832.84 561.472 838.069 559.142C840.327 558.135 842.173 556.796 842.173 556.165C842.173 555.532 844.018 554.294 846.274 553.414Z" fill="black" fill-opacity="0.93"/>
<path d="M914.166 556.384C914.84 555.288 915.944 552.933 916.621 551.15C918.101 547.243 922.012 546.838 925.151 550.264C926.34 551.562 928.064 552.626 928.981 552.626C929.902 552.626 932.073 553.952 933.81 555.577C935.544 557.198 937.366 558.537 937.853 558.546C938.906 558.572 948.764 564.581 953.261 567.94C954.998 569.235 957.057 570.305 957.839 570.312C958.622 570.321 960.02 571.179 960.945 572.221C961.869 573.262 963.786 574.605 965.201 575.203C967.65 576.235 973.698 580.025 979.082 583.897C980.436 584.872 982.173 585.673 982.935 585.673C987.48 585.673 992.102 593.37 992.864 602.197C995.627 634.282 996.051 647.406 994.415 650.439C993.497 652.142 992.407 656.363 991.99 659.817C991.571 663.268 990.355 667.732 989.288 669.733C988.218 671.737 987.344 673.988 987.344 674.739C987.344 678.031 983.921 680.666 981.788 679.01C980.663 678.139 977.094 676.961 973.857 676.395C970.619 675.831 967.033 674.574 965.889 673.605C964.744 672.636 961.009 671.506 957.586 671.094C954.165 670.683 949.665 669.423 947.579 668.293C945.496 667.159 940.996 665.899 937.572 665.487C934.152 665.076 930.363 663.898 929.151 662.875C927.938 661.85 924.488 660.716 921.484 660.355C918.48 659.994 913.912 658.712 911.339 657.506C908.762 656.296 905.555 655.308 904.214 655.308C901.498 655.308 900.248 653.149 900.228 648.425C900.218 646.693 899.09 641.026 897.715 635.834C894.749 624.607 894.525 617.774 897.011 614.453C898.013 613.117 899.51 608.352 900.34 603.863C901.166 599.376 902.345 595.403 902.957 595.032C903.567 594.665 904.82 590.673 905.738 586.164C906.659 581.656 908.105 576.748 908.955 575.263C909.808 573.775 911.054 569.368 911.725 565.464C912.398 561.564 913.496 557.476 914.166 556.384Z" fill="black" fill-opacity="0.93"/>
<path d="M1002.57 676.607C1003.83 674.305 1005.27 670.297 1005.77 667.701C1006.94 661.691 1007.16 662.524 1008.71 678.604C1009.42 685.959 1010.78 693.058 1011.78 694.536C1015.34 699.859 1015.17 750.649 1011.56 759.276C1010.86 760.954 1009.63 767.448 1008.83 773.704C1008.03 779.96 1006.53 786.673 1005.49 788.62C1004.08 791.273 1003.42 798.517 1002.85 817.612C1002.44 831.609 1001.62 843.339 1001.03 843.678C1000.45 844.014 999.969 843.418 999.969 842.348C999.969 839.977 991.767 826.049 989.197 824.055C988.177 823.266 987.344 821.652 987.344 820.471C987.344 819.293 986.715 817.96 985.943 817.513C979.803 813.967 977.653 802.05 975.987 762.43C975.113 741.644 974.145 730.649 972.915 727.612C971.93 725.171 970.497 717.228 969.732 709.955C968.967 702.686 967.507 694.52 966.481 691.81C964.064 685.396 966.292 680.314 968.821 686.475C969.194 687.387 971.385 688.518 973.691 688.986C975.993 689.458 979.485 691.101 981.446 692.64C989.739 699.143 997.534 696.274 999.346 686.051C999.857 683.157 1001.31 678.908 1002.57 676.607Z" fill="black" fill-opacity="0.93"/>
<path d="M855.055 670.794C855.969 669.572 857.845 668.305 859.226 667.979C864.36 666.763 873.595 667.131 874.6 668.587C882.403 679.899 881.045 728.439 872.447 745.599C871.146 748.195 869.467 752.555 868.718 755.287C867.967 758.02 866.856 760.54 866.25 760.888C865.644 761.239 864.458 764.212 863.619 767.496C861.685 775.021 861.248 774.54 859.077 762.493C858.106 757.095 856.721 751.406 855.996 749.848C855.271 748.29 854.127 742.911 853.453 737.896C852.782 732.878 851.116 724.858 849.755 720.071C848.394 715.287 847.242 709.778 847.195 707.831C847.147 705.883 846.274 702.167 845.251 699.567C839.989 686.206 843.077 673.013 851.472 673.013C852.528 673.013 854.14 672.013 855.055 670.794Z" fill="black" fill-opacity="0.93"/>
<path d="M898.745 677.145C899.243 673.247 900.143 669.334 900.743 668.448C901.535 667.279 903.408 667.036 907.526 667.561C910.658 667.963 914.186 668.293 915.372 668.293C916.557 668.293 918.839 669.353 920.441 670.651C922.039 671.949 923.861 673.013 924.481 673.013C926.936 673.013 934.582 681.267 934.542 683.873C934.447 690.088 932.093 704.525 930.81 706.767C930.051 708.094 928.754 712.858 927.931 717.357C927.109 721.853 925.923 726.457 925.297 727.584C924.67 728.711 923.258 734.552 922.158 740.568C921.061 746.58 919.682 752.349 919.097 753.388C918.511 754.423 917.458 758.612 916.753 762.69C915.097 772.311 911.684 773.992 911.623 765.213C911.613 763.668 910.536 760.746 909.232 758.722C907.929 756.696 906.486 753.068 906.026 750.652C905.568 748.239 904.288 745.422 903.184 744.386C901.86 743.151 900.824 739.004 900.147 732.251C899.578 726.609 898.132 717.129 896.93 711.184C895.054 701.923 894.962 699.219 896.29 692.301C897.14 687.859 898.244 681.039 898.745 677.145Z" fill="black" fill-opacity="0.93"/>
<path d="M769.404 680.863C770.095 679.207 770.92 677.23 771.446 675.964C773.339 671.427 775.032 672.44 775.893 678.62C777.532 690.376 783.823 700.612 787.535 697.563C788.771 696.547 791.192 695.315 792.916 694.821C794.636 694.327 797.619 692.937 799.543 691.731C801.466 690.525 804.744 688.457 806.827 687.14L810.612 684.744V693.374C810.612 698.12 809.729 704.908 808.648 708.458C807.473 712.323 806.241 723.671 805.577 736.747C804.968 748.756 803.64 762.3 802.624 766.843C801.608 771.39 800.43 783.003 800.003 792.653C799.279 809.095 799.031 810.418 796.085 813.692C794.355 815.614 792.939 817.862 792.939 818.685C792.939 819.508 791.805 821.142 790.417 822.316C789.025 823.491 787.89 825.087 787.89 825.856C787.89 826.629 786.471 828.804 784.734 830.691C783 832.578 781.582 834.962 781.578 835.988C781.575 841.183 775.683 838.809 774.707 833.221C774.342 831.118 773.536 818.245 772.919 804.612C772.002 784.317 771.341 778.757 769.283 773.926C767.136 768.889 766.645 764.045 765.937 740.878C765.483 725.947 765.087 713.2 765.053 712.551C764.84 708.116 767.762 684.801 768.863 682.16L769.404 680.863Z" fill="black" fill-opacity="0.93"/>
<path d="M823.792 700.732C824.232 697.497 824.926 692.456 825.333 689.537C826.132 683.797 828.018 685.56 828.198 692.216C828.245 694.011 829.705 699.282 831.442 703.927C833.179 708.572 834.598 714.28 834.598 716.61C834.598 718.94 835.698 722.768 837.043 725.114C838.387 727.457 839.891 732.76 840.382 736.898C840.907 741.325 842.237 745.577 843.616 747.233C845.261 749.208 845.962 752.023 845.966 756.677C845.969 761.515 846.731 764.418 848.793 767.435C852.593 772.995 852.928 804.982 849.267 812.875C848.062 815.471 846.565 822.909 845.942 829.399C845.319 835.889 843.998 843.593 843.009 846.512C842.021 849.434 840.541 856.592 839.721 862.421C837.026 881.57 829.549 887.57 829.549 870.583C829.549 868.329 828.489 864.514 827.195 862.105C825.898 859.695 824.439 855.601 823.944 853.005C823.453 850.409 822.326 847.221 821.439 845.923C820.555 844.625 819.41 841.436 818.895 838.84C818.381 836.244 816.874 831.891 815.546 829.168C812.13 822.146 812.489 798.232 816.752 749.139C817.372 741.999 818.313 730.845 818.841 724.354C819.37 717.864 820.517 711.218 821.398 709.585C822.275 707.954 823.352 703.971 823.792 700.732Z" fill="black" fill-opacity="0.93"/>
<path d="M946.268 705.431C946.709 702.854 947.366 698.94 947.735 696.734L948.398 692.716L951.551 695.66C954.355 698.285 954.89 700.308 956.438 714.096C957.392 722.616 958.764 730.614 959.485 731.874C963.958 739.688 964.253 830.162 959.831 837.643C958.3 840.23 957.044 843.947 957.04 845.904C957.037 847.864 955.902 851.058 954.524 853.005C953.143 854.952 952.012 857.894 952.008 859.54C952.001 861.19 950.887 864.577 949.526 867.072C948.168 869.564 946.685 873.901 946.235 876.71C944.196 889.425 941.683 887.272 939.926 871.299C939.462 867.079 938.368 862.298 937.498 860.677C936.628 859.052 935.51 853.211 935.016 847.693C934.521 842.174 933.333 836.067 932.374 834.12C931.416 832.172 930.062 825.251 929.364 818.742C928.666 812.232 927.227 804.596 926.164 801.775C923.407 794.477 923.665 783.013 926.723 776.709C928.097 773.882 929.232 769.544 929.249 767.075C929.262 764.605 930.461 760.15 931.91 757.18C933.356 754.208 934.819 748.79 935.161 745.146C935.5 741.502 936.804 736.658 938.06 734.388C939.316 732.115 940.752 727.071 941.253 723.177C941.751 719.282 942.906 714.749 943.817 713.102C944.724 711.456 945.828 708.005 946.268 705.431Z" fill="black" fill-opacity="0.93"/>
<path d="M795.465 835.681C795.465 834.424 797.301 831.827 799.546 829.912C804.185 825.951 805.306 826.866 805.475 834.756C805.523 837.051 806.634 840.895 807.941 843.295C809.251 845.692 810.718 850.14 811.205 853.179C811.693 856.216 813.179 860.598 814.507 862.918C818.188 869.333 817.602 871.346 810.345 877.201C806.728 880.123 802.431 883.716 800.799 885.189C797.155 888.472 795.466 887.696 795.459 882.738C795.455 880.664 794.409 877.365 793.129 875.405C791.852 873.446 790.386 869.729 789.871 867.145C789.36 864.562 787.816 860.734 786.438 858.641C784.132 855.133 784.087 854.576 785.869 851.558C786.929 849.757 788.639 846.648 789.665 844.65C790.691 842.649 792.418 840.328 793.498 839.489C794.578 838.647 795.465 836.934 795.465 835.681Z" fill="black" fill-opacity="0.93"/>
<path d="M975.584 836.735C975.919 833.999 976.474 830.963 976.816 829.988C977.263 828.718 978.002 829.209 979.42 831.72C980.511 833.648 982.17 835.943 983.112 836.82C984.05 837.7 984.822 839.138 984.822 840.015C984.822 840.892 986.349 843.311 988.218 845.388C992.282 849.903 992.912 858.549 989.529 863.377C988.381 865.017 986.772 868.931 985.953 872.075C985.133 875.219 983.802 878.587 982.993 879.559C982.184 880.534 980.822 882.862 979.966 884.736C978.52 887.896 978.256 888.003 976.251 886.221C975.062 885.166 971.862 882.425 969.136 880.123C960.555 872.882 960.295 869.045 967.528 856.307C968.706 854.231 969.671 851.514 969.671 850.273C969.671 849.029 970.863 846.594 972.323 844.862C973.782 843.127 975.249 839.47 975.584 836.735Z" fill="black" fill-opacity="0.93"/>
<path d="M996.44 876.609C997.52 874.661 998.8 871.337 999.288 869.222C1000.63 863.384 1002.03 865.568 1002.97 874.969C1003.43 879.626 1004.62 885.087 1005.61 887.104C1006.61 889.121 1007.97 894.674 1008.66 899.442C1009.34 904.21 1010.72 908.991 1011.74 910.065C1012.75 911.138 1013.98 914.408 1014.48 917.331C1014.98 920.25 1016.39 924.233 1017.61 926.18C1018.84 928.13 1020.19 932.249 1020.61 935.336C1021.03 938.426 1022.21 942.143 1023.23 943.6C1029.22 952.183 1034.32 1027.05 1029.26 1032.21C1027.88 1033.61 1026.35 1036.52 1025.87 1038.66C1025.34 1041.02 1024.41 1042.31 1023.52 1041.91C1022.72 1041.55 1021.19 1040.96 1020.13 1040.6C1014.74 1038.76 1011.01 1028.53 1009.9 1012.49C1009.3 1004.01 1008.01 994.659 1007.02 991.718C1006.03 988.78 1004.97 980.254 1004.67 972.772C1004.3 963.609 1003.47 958.002 1002.14 955.59C1001.05 953.624 999.518 947.668 998.743 942.356C997.964 937.046 996.501 930.85 995.488 928.583C994.476 926.319 993.148 920.605 992.539 915.884C991.929 911.16 990.673 905.572 989.742 903.46C988.35 900.297 988.34 898.955 989.695 895.789C990.599 893.68 992.045 889.298 992.908 886.053C993.772 882.808 995.363 878.559 996.44 876.609Z" fill="black" fill-opacity="0.93"/>
<path d="M772.049 887.766C772.482 882.279 773.15 875.453 773.529 872.594L774.216 867.398L778.49 874.364C780.84 878.195 782.78 882.143 782.804 883.134C782.824 884.125 783.705 886.091 784.761 887.5C787.646 891.35 787.748 915.19 784.907 921.171C783.749 923.612 782.445 928.922 782.012 932.974C781.578 937.027 780.244 942.203 779.052 944.477C777.86 946.747 776.519 952.427 776.072 957.097C775.628 961.764 774.413 969.369 773.37 973.991C772.33 978.617 771.46 987.01 771.436 992.649C771.331 1018.19 769.682 1026.41 763.035 1034.51C759.726 1038.55 756.865 1042.07 756.679 1042.33C755.707 1043.73 750.018 1039.82 750.018 1037.76C750.018 1036.45 748.877 1032.59 747.481 1029.17C745.334 1023.92 745.145 1022.06 746.228 1017.06C746.936 1013.82 747.993 998.414 748.578 982.834C749.554 956.935 749.875 954.156 752.351 950.378C753.841 948.105 755.06 944.645 755.063 942.688C755.067 940.731 756.13 937.277 757.43 935.01C758.727 932.743 760.211 928.504 760.719 925.585C761.23 922.669 762.723 918.622 764.037 916.599C765.354 914.576 766.431 910.796 766.431 908.203C766.431 905.344 767.383 902.352 768.846 900.614C770.593 898.537 771.48 894.975 772.049 887.766Z" fill="black" fill-opacity="0.93"/>
<path d="M951.673 901.029L955.727 893.246C960.108 884.837 961.608 883.818 962.841 888.412C963.278 890.036 964.07 891.362 964.605 891.362C965.14 891.362 966.295 892.977 967.169 894.95C968.043 896.925 969.681 899.183 970.812 899.968C971.944 900.753 973.555 902.855 974.398 904.641C975.242 906.427 976.447 907.886 977.077 907.886C977.707 907.886 978.933 911.473 979.8 915.855C980.663 920.237 982.119 925.198 983.027 926.883C983.938 928.567 985.045 932.816 985.489 936.324C985.936 939.835 987.348 945.892 988.631 949.786C989.918 953.681 991.608 963.404 992.393 971.392C993.176 979.38 994.662 988.143 995.692 990.866C998.858 999.231 998.767 1027.3 995.563 1030.62C994.181 1032.05 989.573 1039.06 985.326 1046.19L977.599 1059.17L969.756 1044.61C965.445 1036.6 961.446 1029.25 960.87 1028.28C960.298 1027.3 958.415 1023.78 956.685 1020.45L953.546 1014.4L952.608 957.717L951.673 901.029Z" fill="black" fill-opacity="0.93"/>
<path d="M806.827 900.272C806.827 899.503 808.669 896.631 810.924 893.889C816.616 886.965 820.48 887.38 822.576 895.133C823.399 898.179 824.794 901.488 825.678 902.482C826.955 903.919 826.996 907.468 825.892 919.829C825.126 928.377 824.452 946.05 824.395 959.104C824.219 998.943 822.851 1020.69 820.358 1023.27C819.18 1024.48 817.541 1027.3 816.711 1029.53C815.882 1031.76 814.453 1034.29 813.542 1035.14C812.627 1036 811.506 1038.13 811.053 1039.86C810.599 1041.61 809.217 1044.25 807.981 1045.74C806.749 1047.23 805.36 1050.05 804.9 1052.01C803.244 1059.06 795.537 1059.33 795.482 1052.34C795.472 1050.96 794.406 1048.57 793.112 1047.02C791.822 1045.47 790.332 1042.88 789.807 1041.26C789.282 1039.64 788.11 1037.51 787.199 1036.54C781.785 1030.73 780.379 1018.09 782.608 995.229C783.397 987.115 784.057 976.337 784.074 971.281C784.094 964.433 784.751 960.896 786.644 957.426C788.043 954.865 789.543 949.441 789.98 945.376C790.417 941.311 791.829 936.014 793.119 933.604C794.409 931.198 795.465 926.899 795.465 924.052C795.465 920.424 796.2 918.255 797.917 916.799C799.268 915.659 800.762 913.053 801.239 911.011C801.717 908.969 803.166 906.031 804.466 904.483C805.763 902.934 806.827 901.038 806.827 900.272Z" fill="black" fill-opacity="0.93"/>
<path d="M767.129 1047.04C768.118 1045.25 770.21 1043.59 771.782 1043.35C776.638 1042.62 779.59 1044.25 782.042 1049.05C783.339 1051.58 784.819 1053.92 785.33 1054.24C785.842 1054.56 786.956 1056.82 787.802 1059.25C788.649 1061.68 790.295 1064.16 791.456 1064.78C794.412 1066.33 794.233 1093.57 791.229 1099.49C790.135 1101.64 788.591 1109.73 787.796 1117.48C786.996 1125.22 785.892 1132.08 785.34 1132.73C783.8 1134.54 781.578 1147.18 781.578 1154.12C781.578 1162.1 779.465 1163.38 778.382 1156.06C777.921 1152.97 776.546 1148.57 775.324 1146.29C774.101 1144.02 772.703 1138.44 772.215 1133.9C771.731 1129.36 770.227 1121.79 768.88 1117.08C767.061 1110.72 766.431 1104.63 766.431 1093.43C766.431 1081.38 765.923 1077.01 763.905 1071.64C760.82 1063.44 760.559 1053.99 763.356 1051.82C764.443 1050.97 766.143 1048.82 767.129 1047.04Z" fill="black" fill-opacity="0.93"/>
<path d="M993.091 1052.67C993.579 1050.18 995.35 1046.86 997.029 1045.29C1001.59 1041.03 1006.16 1041.55 1010.7 1046.86L1014.49 1051.29L1014.2 1066.98C1014.02 1077.46 1013.27 1084.46 1011.95 1088.09C1010.72 1091.47 1009.69 1100.04 1009.21 1110.76C1008.66 1123.21 1007.81 1129.54 1006.16 1133.52C1004.9 1136.56 1003.51 1141.87 1003.08 1145.33C1001.9 1154.72 1001.37 1155.69 999.291 1152.2C998.323 1150.58 997.507 1148.19 997.47 1146.89C997.436 1145.6 996.626 1142.41 995.671 1139.81C994.716 1137.22 993.558 1131.11 993.098 1126.24C992.641 1121.37 991.201 1113.14 989.898 1107.95C984.618 1086.87 984.828 1067.91 990.433 1059.77C991.408 1058.35 992.607 1055.16 993.091 1052.67Z" fill="black" fill-opacity="0.93"/>
<path d="M749.991 1143.35C751.257 1129.84 754.914 1102.71 755.849 1099.89C757.312 1095.46 758.043 1099.6 758.995 1117.68C759.642 1129.99 760.637 1137.75 761.938 1140.66C764.555 1146.5 764.664 1164.81 762.1 1167.46C761.105 1168.48 759.435 1170.87 758.389 1172.76L756.482 1176.19L755.595 1172.75C755.107 1170.86 753.736 1167.46 752.547 1165.19C749.351 1159.08 748.887 1155.13 749.991 1143.35Z" fill="black" fill-opacity="0.93"/>
<path d="M1016.36 1133.32C1017.05 1121.72 1018.09 1115.22 1020.17 1109.42C1024.73 1096.78 1026.48 1101.02 1026.48 1124.68C1026.48 1131.99 1027.29 1139.99 1028.48 1144.44C1030.32 1151.27 1030.32 1152.22 1028.48 1155.54C1027.38 1157.54 1026.48 1160.53 1026.48 1162.2C1026.48 1163.99 1024.73 1167.01 1022.16 1169.63L1017.85 1174.03L1016.99 1170.84C1016.52 1169.08 1015.34 1167.03 1014.36 1166.27C1012.24 1164.62 1012.04 1157.19 1014 1152.58C1014.77 1150.75 1015.83 1142.08 1016.36 1133.32Z" fill="black" fill-opacity="0.93"/>
<path fill-rule="evenodd" clip-rule="evenodd" d="M319.265 38.355C317.138 39.674 313.778 40.7537 311.793 40.7601C309.812 40.7634 305.466 42.1211 302.14 43.7794C298.81 45.4378 294.526 46.7923 292.625 46.7923C288.455 46.7923 282.532 57.3372 282.532 64.7593C282.532 67.1903 281.447 71.1696 280.119 73.6038C274.213 84.4332 273.961 109.05 279.649 119.617C280.693 121.56 282.003 126.561 282.556 130.728C283.11 134.898 284.475 139.165 285.596 140.209C286.716 141.257 288.078 142.773 288.624 143.578C289.171 144.383 292.811 147.425 296.708 150.337C300.608 153.253 304.726 156.592 305.857 157.759C306.991 158.93 309.891 160.74 312.301 161.784C314.715 162.825 318.428 164.726 320.554 166.006C327.601 170.241 332.645 169.339 344.397 161.739C347.589 159.676 351.44 157.627 352.955 157.184C361.491 154.688 375.332 137.762 375.332 129.826C375.332 126.218 376.569 119.21 378.084 114.251C382.209 100.732 382.288 78.8407 378.233 74.0176C376.22 71.6222 375.332 68.9391 375.332 65.2442C375.332 62.296 374.211 57.9384 372.818 55.4655C371.435 53.0151 370.028 50.1186 369.689 49.0292C368.863 46.372 355.932 40.7698 350.6 40.7601C348.252 40.7537 344.591 39.674 342.465 38.355C339.685 36.6353 336.424 35.9629 330.865 35.9629C325.305 35.9629 322.045 36.6353 319.265 38.355ZM359.87 170.299C358.947 172.92 357.404 175.797 356.45 176.69C355.496 177.585 354.338 179.767 353.878 181.545C353.421 183.32 351.969 186.213 350.655 187.972C349.342 189.733 348.266 191.964 348.266 192.934C348.266 193.9 347.184 195.985 345.863 197.566C344.546 199.147 343.021 201.759 342.482 203.372C341.939 204.985 340.12 208.725 338.437 211.686C335.162 217.447 333.89 240.36 336.618 244.397C338.433 247.081 352.868 249.065 377.264 249.99C398.988 250.811 414 254.425 414 258.834C414 259.381 415.594 260.202 417.544 260.654C419.494 261.107 422.25 262.452 423.668 263.641C429.203 268.29 444.859 275.104 446.494 273.579C447.877 272.282 446.093 248.464 444.039 240.812C443.043 237.108 442.203 236.426 437.152 235.217C433.988 234.46 429.659 232.97 427.533 231.91C425.407 230.849 421.859 229.977 419.65 229.973C417.444 229.967 414.163 228.881 412.358 227.555C410.557 226.23 408.458 225.144 407.69 225.144C402.535 225.144 375.383 199.25 375.349 194.301C375.342 192.911 374.173 190.794 372.756 189.594C371.338 188.395 370.177 186.601 370.177 185.609C370.177 184.613 368.832 181.038 367.182 177.659C365.537 174.281 363.597 170.169 362.871 168.524C361.574 165.569 361.533 165.595 359.87 170.299ZM294.149 175.697C293.278 177.663 291.757 179.9 290.771 180.663C289.783 181.429 288.977 183.032 288.977 184.228C288.977 185.421 287.525 188.007 285.755 189.979C283.981 191.948 282.529 194.295 282.529 195.19C282.525 197.977 272.222 208.716 261.248 217.373C249.904 226.321 243.552 229.964 239.282 229.973C237.194 229.977 233.747 231.06 231.62 232.375C229.491 233.691 225.978 234.774 223.81 234.777C215.944 234.793 213.043 241.326 210.9 263.845C209.69 276.588 210.049 276.65 227.752 266.667C230.587 265.067 234.936 262.798 237.419 261.624C239.901 260.451 242.605 258.896 243.431 258.172C244.258 257.448 246.723 256.161 248.908 255.314C251.097 254.467 252.888 253.339 252.888 252.809C252.888 250.546 263.008 249.253 290.253 248.034C306.195 247.323 319.631 246.353 320.108 245.884C322.186 243.841 322.657 216.18 320.668 213.093C318.839 210.261 317.273 207.303 314.618 201.646C313.992 200.32 312.934 198.423 312.263 197.427C311.593 196.435 308.889 191.282 306.261 185.98C302.399 178.193 297.911 172.122 296.023 172.122C295.864 172.122 295.021 173.729 294.149 175.697ZM455.566 236.946C455.145 237.974 455.912 241.572 457.278 244.937C459.384 250.132 459.76 254.325 459.795 272.719L459.833 294.384L475.852 306.762C499.587 325.107 499.543 325.142 500.123 287.02L500.535 259.966L490.29 250.388C483.272 243.825 479.084 240.809 476.989 240.803C475.309 240.8 472.194 239.914 470.067 238.837C463.806 235.669 456.483 234.712 455.566 236.946ZM194.241 236.775C185.608 238.462 177.099 241.456 174.637 243.67C173.071 245.08 168.545 249.217 164.579 252.861L157.367 259.491L157.782 285.4C158.415 324.852 160.282 326.765 180.197 308.391C181.691 307.014 183.233 305.886 183.623 305.886C184.018 305.886 187.568 303.038 191.517 299.559L198.695 293.233L197.052 281.434C195.223 268.303 196.772 252.705 200.589 245.807C205.015 237.803 203.079 235.045 194.241 236.775ZM313.193 263.16C312.848 263.483 299.844 263.874 284.302 264.029C263.264 264.239 255.557 264.711 254.143 265.882C251.923 267.715 245.236 271.196 238.387 274.086C235.728 275.208 233.553 276.527 233.553 277.015C233.553 277.506 231.282 278.757 228.505 279.795C225.732 280.833 223.063 282.281 222.583 283.011C222.098 283.745 220.307 284.838 218.603 285.442C213.686 287.191 215.087 309.286 221.352 328.782L224.256 337.821L233.736 339.169C238.954 339.909 245.374 341.399 248.012 342.482C250.647 343.562 255.308 344.448 258.371 344.448C261.435 344.448 266.216 345.534 268.996 346.859C274.445 349.455 278.708 349.93 280.662 348.159C281.924 347.018 291.491 343.666 305.175 339.573C309.477 338.286 314.376 335.862 316.063 334.184L319.126 331.136L317.574 316.401C316.72 308.297 316.025 293.159 316.032 282.759C316.042 266.008 315.337 261.152 313.193 263.16ZM342.679 264.223C342.209 265.374 341.77 272.641 341.707 280.377C341.586 295.968 339.833 322.492 338.54 328.34C337.424 333.395 341.621 337.976 348.349 339.04C351.057 339.466 353.944 340.572 354.766 341.496C355.586 342.424 358.376 343.527 360.962 343.947C363.548 344.37 367.583 345.741 369.928 346.992C375.373 349.901 380.075 349.872 387.115 346.885C390.206 345.573 395.226 344.49 398.276 344.474C401.322 344.461 405.384 343.701 407.296 342.786C409.212 341.871 412.517 340.814 414.643 340.436C434.244 336.948 433.069 337.404 434.742 332.629C435.599 330.182 437.041 327.095 437.94 325.77C438.843 324.444 440.205 320.151 440.965 316.227C441.726 312.306 443.151 308.239 444.129 307.188C449.391 301.547 445.723 285.4 439.178 285.4C438.262 285.4 436.765 284.553 435.848 283.522C434.932 282.491 432.266 280.894 429.922 279.979C427.575 279.064 424.919 277.733 424.017 277.018C420.701 274.4 412.559 269.732 411.307 269.732C410.598 269.732 408.579 268.39 406.819 266.745C402.483 262.691 344.249 260.402 342.679 264.223ZM455.94 308.22C455.532 308.84 454.692 313.085 454.08 317.652C453.464 322.223 452.199 327.108 451.262 328.508C449.81 330.683 449.879 331.388 451.743 333.315C452.942 334.553 454.305 337.343 454.768 339.508C455.231 341.678 456.372 343.724 457.299 344.057C458.229 344.39 459.667 346.646 460.5 349.074C461.334 351.502 462.807 354.337 463.771 355.371C464.736 356.409 466.205 359.121 467.035 361.397C467.868 363.676 469.614 366.831 470.918 368.411C472.221 369.992 473.29 372.229 473.29 373.387C473.29 374.541 474.158 376.16 475.216 376.981C476.277 377.802 477.819 380.582 478.642 383.156C479.468 385.726 480.585 387.83 481.128 387.83C481.671 387.83 482.736 389.595 483.496 391.748C484.26 393.901 488.8 399.59 493.585 404.384C498.374 409.182 503.996 414.874 506.084 417.037C508.169 419.203 511.454 421.883 513.379 422.998L516.878 425.022L518.324 417.273C519.973 408.419 518.331 396.167 514.538 389.036C513.303 386.718 511.879 382.16 511.374 378.908C510.866 375.656 509.663 372.258 508.701 371.36C507.74 370.461 506.603 367.157 506.174 364.018C505.742 360.876 504.259 355.988 502.872 353.153C501.489 350.318 500.358 346.895 500.358 345.54C500.358 343.009 498.128 338.283 496.434 337.216C494.947 336.285 480.913 324.894 477.491 321.842C465.279 310.951 457.42 305.983 455.94 308.22ZM185.777 316.56C181.124 320.963 173.147 327.819 168.058 331.795C160.908 337.378 158.48 340.1 157.402 343.737C156.634 346.329 155.255 349.581 154.335 350.968C153.412 352.352 152.295 356.163 151.852 359.434C151.41 362.706 150.227 366.553 149.225 367.982C148.222 369.414 146.797 373.635 146.058 377.369C145.321 381.103 143.848 385.726 142.79 387.639C141.729 389.556 140.287 394.457 139.589 398.527C138.887 402.597 137.991 406.414 137.594 407.013C136.214 409.101 141.812 419.164 144.353 419.164C151.009 419.164 167.788 399.044 180.532 375.782C195.628 348.22 198.75 342.25 198.75 340.934C198.75 340.216 199.286 339.628 199.939 339.628C202.353 339.628 204.244 330.787 203.528 322.86C201.972 305.624 198.605 304.428 185.777 316.56ZM443.673 352.51C443.693 360.472 444.34 364.442 446.252 368.379C447.652 371.269 448.8 374.305 448.8 375.122C448.8 375.944 449.91 377.55 451.262 378.695C452.617 379.842 454.104 382.192 454.567 383.922C455.034 385.651 456.825 388.635 458.55 390.555C460.276 392.472 461.69 394.518 461.69 395.1C461.69 396.154 466.841 403.912 469.483 406.838C470.244 407.682 471.509 410.119 472.297 412.259C473.086 414.399 474.794 416.859 476.087 417.726C477.383 418.592 478.455 420.218 478.466 421.34C478.538 428.943 487.355 425.607 487.427 417.949C487.455 415.162 486.681 413.258 485.163 412.372C483.897 411.632 480.91 407.433 478.524 403.043C476.139 398.65 473.407 394.447 472.45 393.707C471.495 392.963 470.71 391.282 470.71 389.967C470.71 388.651 469.262 385.965 467.488 383.996C465.718 382.027 464.269 379.121 464.269 377.537C464.269 375.953 463.176 374.114 461.838 373.445C460.504 372.779 459.052 370.435 458.613 368.243C458.173 366.052 456.656 363.33 455.238 362.198C453.824 361.064 452.666 358.775 452.666 357.107C452.666 355.374 451.286 352.95 449.443 351.453C447.673 350.015 446.224 347.609 446.224 346.109C446.224 344.613 445.643 343.051 444.935 342.641C444.112 342.166 443.655 345.734 443.673 352.51ZM205.949 350.965C205.499 353.212 204.064 356.325 202.761 357.883C201.461 359.441 199.946 362.072 199.397 363.731C198.847 365.386 197.315 368.036 195.998 369.617C194.677 371.198 193.595 373.419 193.595 374.55C193.595 375.685 192.468 377.566 191.092 378.73C189.712 379.897 188.236 382.347 187.807 384.177C187.375 386.004 185.605 388.654 183.865 390.067C182.13 391.48 180.705 393.604 180.705 394.787C180.705 395.97 179.758 398.2 178.6 399.749C170.959 409.948 166.505 426.395 171.384 426.395C172.874 426.395 178.164 420.053 178.873 417.418C179.291 415.854 181.037 413.342 182.749 411.839C184.46 410.332 185.864 408.235 185.864 407.171C185.864 406.107 186.873 403.899 188.108 402.261C190.78 398.711 194.024 393.439 196.675 388.337C197.733 386.298 199.448 383.97 200.486 383.169C201.519 382.364 202.761 380.24 203.241 378.442C203.722 376.648 205.157 374.272 206.429 373.163C209.313 370.648 210.827 361.71 209.686 353.955C208.628 346.756 207.048 345.492 205.949 350.965ZM316.831 349.119C315.576 350.419 312.021 351.708 308.502 352.145C299.097 353.312 289.841 360.695 288.562 368.046C288.14 370.477 286.837 373.454 285.665 374.667C278.608 381.956 273.539 528.166 279.953 539.357C281.37 541.83 282.532 546.129 282.532 548.91C282.532 551.893 283.359 554.735 284.555 555.853C286.961 558.103 288.974 564.158 288.984 569.188C288.987 571.182 290.146 574.438 291.553 576.429C292.96 578.417 294.118 581.692 294.122 583.706C294.129 585.72 295.256 589.431 296.635 591.955C298.011 594.48 299.509 598.13 299.965 600.066C300.895 604.036 313.868 616.85 315.811 615.722C321.194 612.596 325.253 346.859 319.918 346.859C319.424 346.859 318.034 347.878 316.831 349.119ZM335.999 369.197C334.893 394.082 336.272 491.103 338.177 522.198C338.907 534.13 339.882 559.726 340.342 579.08C341.334 620.933 341.23 620.639 351.534 610.288C355.406 606.396 358.577 602.323 358.577 601.236C358.577 600.147 359.489 598.039 360.606 596.549C361.768 594.997 363.237 588.839 364.046 582.122C364.963 574.535 366.294 569.275 367.818 567.203C369.115 565.445 370.177 563.153 370.177 562.115C370.177 561.074 371.269 557.903 372.607 555.071C377.188 545.354 377.399 541.675 377.092 477.61C376.732 402.72 375.612 377.02 372.559 373.765C371.421 372.553 370.097 368.993 369.613 365.848C368.714 360 355.676 351.679 347.409 351.679C346.026 351.679 343.765 350.884 342.389 349.911C337.296 346.307 336.978 347.26 335.999 369.197ZM226.873 352.82C222.738 355.95 220.757 376.597 223.143 391.712C223.845 396.167 225.269 401.048 226.303 402.558C227.337 404.071 228.595 409.101 229.096 413.74C229.598 418.382 230.818 423.664 231.811 425.484C232.869 427.427 233.899 434.39 234.31 442.355C234.691 449.816 235.244 457.041 235.534 458.408C236.063 460.91 259.339 483.251 262.275 484.076C263.136 484.318 264.567 485.372 265.452 486.416C267.419 488.734 267.706 419.387 265.826 395.22C264.581 379.186 264.619 379.005 272.485 364.639C275.617 358.914 274.756 357.705 267.551 357.705C264.149 357.705 258.983 356.509 255.062 354.818C246.142 350.965 230.76 349.875 226.873 352.82ZM417.354 351.805C413.171 352.374 407.334 353.936 404.378 355.274C401.425 356.609 397.017 357.711 394.583 357.721C383.256 357.763 381.081 361.38 386.24 371.576C389.189 377.408 389.511 379.496 389.511 392.87C389.511 408.661 391.606 459.747 392.851 474.297C393.715 484.425 395.389 485.356 401.754 479.272C403.88 477.239 409.239 472.826 413.658 469.467C422.824 462.501 422.565 463.241 423.536 441.156C424.203 425.966 427.702 408.626 432.104 398.679C439.168 382.729 435.267 349.737 426.423 350.622C425.618 350.703 421.534 351.233 417.354 351.805ZM532.181 420.069C531.877 420.564 531.262 422.869 530.809 425.19C529.211 433.426 525.1 436.481 516.028 436.177C507.464 435.887 506.679 436.371 510.693 439.459C513.307 441.466 516.968 447.033 519.741 453.207C520.561 455.03 521.774 456.521 522.442 456.521C523.105 456.521 524.824 458.825 526.259 461.644C530.159 469.289 533.385 474.513 535.684 476.886C536.811 478.05 537.734 479.556 537.734 480.229C537.734 480.901 539.186 483.028 540.957 484.955C542.727 486.882 544.179 489.228 544.179 490.169C544.179 491.11 545.144 492.878 546.323 494.094C548.653 496.505 550.575 499.431 554.088 505.932C555.343 508.249 557.684 511.682 559.295 513.554C560.906 515.429 562.224 517.666 562.224 518.529C562.224 519.392 563.129 520.798 564.232 521.655C565.335 522.512 567.109 524.881 568.167 526.924C571.116 532.598 574.595 538.239 576.403 540.275C578.211 542.312 581.689 547.949 584.639 553.626C585.697 555.669 587.47 558.039 588.573 558.895C589.676 559.752 590.582 561.336 590.586 562.416C590.596 565.147 597.947 572.21 600.785 572.21C602.071 572.21 604.602 573.3 606.414 574.632C613.236 579.649 622.159 578.417 615.639 573.358C614.536 572.501 612.776 570.129 611.728 568.089C608.222 561.258 605.671 557.269 603.271 554.861C601.964 553.548 600.892 551.24 600.892 549.731C600.892 548.221 599.779 546.43 598.417 545.751C597.058 545.069 595.27 542.609 594.451 540.285C593.632 537.961 592.494 536.057 591.927 536.057C591.357 536.057 590.133 534.295 589.203 532.142C588.272 529.986 586.789 527.81 585.911 527.306C585.033 526.801 583.629 523.278 582.796 519.473C581.963 515.671 580.746 511.941 580.092 511.185C579.439 510.431 578.256 506.365 577.464 502.146C576.673 497.931 575.272 493.399 574.353 492.073C573.433 490.745 572.091 486.206 571.365 481.984C570.643 477.762 569.249 473.152 568.267 471.743C567.289 470.33 566.068 466.199 565.56 462.559C564.499 454.998 561.816 450.317 552.992 440.648C549.562 436.892 546.758 433.362 546.758 432.806C546.758 432.25 545.597 431.118 544.179 430.291C542.761 429.46 541.603 428.193 541.603 427.469C541.603 424.996 533.201 418.395 532.181 420.069ZM122.785 422.086C121.858 423.131 120.448 423.997 119.649 424.013C118.847 424.026 116.164 426.26 113.685 428.975C111.202 431.691 106.708 436.31 103.693 439.239C100.681 442.168 98.2161 445.378 98.2161 446.373C98.2161 447.369 97.1339 450.194 95.8097 452.654C94.482 455.111 92.9883 459.834 92.487 463.151C91.9822 466.464 90.7928 470.311 89.842 471.698C88.8877 473.085 87.5082 477.274 86.7683 481.008C86.0284 484.742 84.597 489.031 83.5839 490.538C82.5709 492.044 81.34 495.988 80.8559 499.301C80.3684 502.615 78.8921 507.496 77.5748 510.147C76.2575 512.798 74.8191 517.029 74.38 519.551C73.9444 522.072 72.8034 524.413 71.8491 524.755C70.8949 525.098 69.7435 527.231 69.2871 529.498C68.8342 531.764 67.4028 534.146 66.1097 534.796C64.8166 535.442 63.4059 537.611 62.9772 539.612C62.5485 541.617 61.0237 544.196 59.5854 545.347C58.1471 546.498 56.9715 548.237 56.9715 549.217C56.9715 550.193 55.6507 552.918 54.0395 555.275C49.2889 562.215 48.1341 564.103 45.3612 569.498C43.9125 572.314 42.163 574.619 41.4715 574.619C40.78 574.619 40.2164 575.162 40.2164 575.825C40.2164 577.68 46.1461 577.253 47.9059 575.269C48.7668 574.302 50.7238 573.145 52.2555 572.699C56.7191 571.399 64.6057 565.04 66.853 560.932C67.9906 558.85 69.6675 556.736 70.5802 556.235C71.4896 555.734 72.6063 553.759 73.0558 551.842C73.5053 549.925 74.9989 547.403 76.3785 546.239C77.7546 545.072 78.8817 543.411 78.8817 542.544C78.8817 541.681 79.995 540 81.3573 538.817C82.7161 537.631 84.2339 535.155 84.7283 533.315C85.2193 531.473 86.7164 529.42 88.0545 528.754C89.3891 528.085 90.492 526.608 90.5058 525.47C90.5266 523.598 95.1666 516.247 100.145 510.205C101.21 508.909 102.082 507.189 102.082 506.381C102.082 505.573 103.388 503.371 104.982 501.493C108.312 497.572 110.072 495.012 113.574 488.98C114.95 486.613 116.987 483.972 118.1 483.106C119.217 482.243 120.13 480.516 120.13 479.272C120.13 478.027 121.226 475.981 122.571 474.724C124.946 472.503 126.53 470.085 131.342 461.34C132.618 459.023 134.61 456.459 135.772 455.645C136.93 454.833 138.251 452.787 138.703 451.096C139.156 449.405 140.66 446.965 142.043 445.672C145.778 442.181 144.073 439.41 138.762 440.341C133.804 441.211 128.618 435.185 125.911 425.4C124.659 420.881 124.248 420.441 122.785 422.086ZM157.692 437.257C156.949 439.252 155.441 441.211 154.345 441.602C153.249 441.996 152.35 443.302 152.35 444.508C152.35 445.711 150.981 448.229 149.304 450.104C147.631 451.975 145.816 454.836 145.273 456.456C144.726 458.075 142.341 461.874 139.969 464.893C137.594 467.909 134.859 472.008 133.891 473.996C132.919 475.984 131.166 478.354 129.994 479.265C128.822 480.174 127.861 481.641 127.861 482.524C127.861 484.034 124.469 489.419 119.203 496.269C117.941 497.915 116.178 500.624 115.289 502.295C114.401 503.963 111.946 507.768 109.837 510.751C107.728 513.732 105.383 517.495 104.626 519.111C103.869 520.727 102.12 522.793 100.733 523.698C99.3501 524.607 98.2161 526.226 98.2161 527.299C98.2161 529.009 96.0517 532.384 84.5728 548.58C83.2174 550.494 81.5336 552.934 80.8317 554.001C74.7638 563.243 70.888 568.603 69.83 569.214C67.2507 570.704 68.606 576.629 72.4438 580.651L76.3128 584.705L80.2613 581.168C84.2028 577.638 86.0837 574.987 89.7729 567.772C90.8516 565.664 92.3694 563.57 93.1474 563.12C93.9253 562.671 95.6886 560.059 97.0682 557.314C100.719 550.038 103.814 545.218 105.484 544.206C106.289 543.718 107.347 541.849 107.828 540.049C108.312 538.252 110.117 535.559 111.839 534.068C113.564 532.575 114.971 530.513 114.971 529.488C114.971 528.46 115.535 527.623 116.219 527.623C116.907 527.623 118.211 526.33 119.12 524.749C121.084 521.335 129.984 511.408 138.496 503.135C141.864 499.864 144.616 496.664 144.616 496.023C144.616 495.383 145.778 493.483 147.195 491.798C148.613 490.114 149.774 487.253 149.774 485.443C149.774 483.633 150.933 480.775 152.35 479.091C153.768 477.403 154.93 474.972 154.93 473.683C154.93 472.396 156.281 468.957 157.938 466.041C161.813 459.217 162.889 452.609 161.845 442.084C160.932 432.909 159.805 431.597 157.692 437.257ZM494.771 440.454C491.863 443.173 495.093 462.368 499.867 470.767C501.555 473.734 502.934 477.216 502.934 478.503C502.934 479.792 504.096 482.223 505.514 483.911C506.931 485.595 508.089 488.33 508.089 489.988C508.089 491.643 509.4 494.149 511.001 495.548C514.579 498.681 532.579 518.646 532.579 519.483C532.579 519.816 534.934 522.46 537.807 525.36C540.683 528.263 543.892 532.261 544.943 534.249C549.061 542.053 551.08 545.134 552.653 546.007C553.552 546.508 554.662 548.502 555.118 550.442C555.575 552.381 556.82 554.647 557.891 555.475C558.96 556.306 560.975 558.918 562.365 561.284C563.759 563.647 566.307 567.753 568.029 570.403C569.747 573.054 572.036 576.946 573.115 579.051C576.413 585.506 584.058 585.131 587.954 578.323C589.306 575.957 588.549 572.21 586.717 572.21C586.16 572.21 584.777 570.041 583.643 567.391C582.509 564.74 580.963 562.571 580.213 562.571C579.463 562.571 577.969 560.806 576.894 558.653C574.038 552.934 564.948 539.195 561.978 536.111C561.052 535.148 559.596 532.843 558.742 530.991C557.891 529.139 556.647 527.623 555.983 527.623C555.316 527.623 554.379 526.168 553.901 524.39C553.424 522.612 551.768 519.638 550.219 517.779C542.585 508.631 541.603 507.212 541.603 505.311C541.603 504.186 540.151 502.198 538.381 500.895C536.607 499.592 535.158 497.834 535.158 496.99C535.158 496.15 533.997 494.475 532.579 493.276C531.161 492.076 530.003 490.308 530.003 489.348C530.003 488.385 528.696 486.08 527.102 484.224C525.508 482.369 522.255 477.833 519.876 474.148C517.497 470.463 514.78 466.852 513.836 466.121C512.895 465.388 511.751 463.206 511.295 461.266C510.838 459.326 509.704 457.332 508.774 456.831C507.841 456.33 506.108 454.022 504.926 451.701C498.588 439.287 497.413 437.985 494.771 440.454ZM256.753 543.227C254.271 544.497 250.066 545.89 247.407 546.323C242.64 547.106 240.375 551.515 243.742 553.461C244.386 553.833 245.803 556.584 246.896 559.577C247.985 562.571 249.779 565.862 250.882 566.893C251.985 567.924 252.888 570.552 252.888 572.737C252.888 574.919 253.991 578.019 255.346 579.626C256.698 581.233 258.229 585.238 258.748 588.526C259.267 591.813 260.771 595.796 262.088 597.377C263.409 598.957 264.487 601.964 264.487 604.052C264.487 606.144 265.552 609.809 266.859 612.205C268.163 614.597 269.988 621.625 270.912 627.822C271.835 634.022 273.059 639.656 273.626 640.345C274.196 641.033 275.306 645.362 276.091 649.965C276.879 654.569 278.276 659.156 279.199 660.161C282.173 663.403 287.577 675.38 288.5 680.772C288.991 683.656 290.395 687.658 291.612 689.669C292.832 691.676 294.187 695.584 294.627 698.348C295.142 701.626 296.732 704.607 299.187 706.902L302.956 710.425L303.848 700.065C304.339 694.369 305.57 687.538 306.583 684.884C307.596 682.234 308.975 674.53 309.653 667.764C310.331 660.96 312.032 652.732 313.463 649.345C316.758 641.522 316.706 639.31 313.142 635.58C292.296 613.779 293.005 614.649 292.061 609.712C291.601 607.314 290.381 604.443 289.347 603.334C288.313 602.226 287.155 598.974 286.771 596.103C286.387 593.236 285.046 589.263 283.794 587.275C282.539 585.287 281.094 581.217 280.579 578.236C280.064 575.252 278.553 570.801 277.221 568.341C275.887 565.881 274.798 562.205 274.798 560.169C274.798 558.132 273.812 554.45 272.609 551.987C271.403 549.521 270.096 546.149 269.701 544.494C268.771 540.582 263.025 540.02 256.753 543.227ZM387.544 551.305C385.842 554.9 384.096 559.855 383.657 562.315C383.222 564.775 381.458 570.723 379.743 575.534C378.025 580.347 376.621 585.358 376.621 586.67C376.621 593.197 367.341 613.401 361.865 618.803C360.409 620.235 358.214 622.675 356.986 624.224C355.755 625.775 352.965 629.192 350.78 631.824C345.998 637.587 346.123 641.842 352.153 677.656C352.82 681.632 353.387 688.683 353.408 693.322C353.511 714.977 355.804 715.378 363.676 695.129C364.835 692.145 366.695 687.807 367.812 685.489C368.928 683.168 370.567 679.373 371.459 677.052C372.348 674.734 374.218 669.853 375.612 666.206C377.005 662.563 378.616 659.036 379.19 658.373C379.768 657.711 380.926 654.727 381.77 651.746C382.617 648.763 384.045 645.511 384.95 644.515C385.853 643.519 386.914 639.627 387.305 635.861C387.696 632.095 388.913 627.214 390.005 625.016C391.101 622.814 392.564 616.679 393.259 611.374C393.95 606.072 395.354 599.837 396.371 597.516C397.391 595.198 398.618 590.22 399.102 586.453C399.589 582.691 400.803 578.973 401.802 578.197C402.802 577.421 403.984 574.981 404.427 572.77C404.869 570.562 406.335 567.821 407.684 566.679C409.032 565.538 410.131 563.679 410.131 562.545C410.131 561.41 411.293 559.105 412.711 557.421C416.033 553.471 415.961 552.081 412.389 551.043C410.795 550.581 408.04 549.265 406.266 548.118C404.496 546.97 400.253 545.748 396.841 545.402L390.635 544.772L387.544 551.305ZM224.1 557.347C223.627 557.79 223.239 559.073 223.239 560.198C223.239 561.323 222.147 563.547 220.805 565.137C219.467 566.728 217.756 570.119 217.002 572.673C216.248 575.226 214.717 578.259 213.6 579.413C212.386 580.667 211.086 585.474 210.367 591.357C209.707 596.775 208.708 601.867 208.147 602.675C204.859 607.424 204.389 668.876 207.615 672.73C209.098 674.501 210.312 682.24 211.636 698.361C212.248 705.774 213.32 712.844 214.025 714.072C215.54 716.719 218.084 736.846 218.084 746.179C218.084 750.552 219.111 754.8 221.165 758.944C227.942 772.622 239.998 783.06 239.998 775.25C239.998 774.409 241.142 771.358 242.546 768.471C243.95 765.581 245.108 761.922 245.125 760.334C245.139 758.75 246.246 755.227 247.58 752.502C253.057 741.326 253.548 735.495 253.216 685.489C252.888 635.683 251.377 614.232 247.698 607.159C246.495 604.838 245.195 599.591 244.818 595.502C244.437 591.409 243.238 586.528 242.152 584.653C241.07 582.781 239.542 578.63 238.757 575.43C237.972 572.23 236.762 568.975 236.063 568.199C235.365 567.423 233.062 564.481 230.943 561.666C227.15 556.619 225.795 555.763 224.1 557.347ZM425.524 562.267C424.809 564.09 423.152 567.753 421.845 570.403C417.717 578.776 415.114 586.964 413.375 597.037C412.445 602.407 410.823 608.371 409.772 610.291C408.717 612.215 407.435 618.395 406.919 624.03C406.404 629.661 405.291 636.185 404.44 638.525C400.198 650.217 405.049 744.892 410.398 754.781C411.473 756.769 412.749 760.81 413.233 763.758C413.717 766.709 414.612 769.693 415.224 770.388C415.833 771.083 417.32 774.836 418.526 778.731L420.718 785.808L425.275 778.127C427.782 773.902 430.849 769.363 432.09 768.038C433.335 766.712 434.742 763.186 435.219 760.205C435.696 757.221 436.879 752.068 437.85 748.755C438.822 745.441 440.226 735.514 440.972 726.695C441.716 717.874 443.147 707.843 444.153 704.4C445.156 700.957 446.653 690.008 447.476 680.065C448.299 670.108 449.889 659.67 451.013 656.825C453.323 650.977 452.171 628.539 447.78 593.785C445.422 575.142 429.386 552.43 425.524 562.267ZM265.355 659.631C264.892 662.253 264.505 683.649 264.494 707.18C264.477 746.906 264.304 750.226 262.053 753.675C260.722 755.718 259.201 760.321 258.672 763.906C258.146 767.491 256.629 772.318 255.301 774.636C253.973 776.95 252.884 780.752 252.881 783.082C252.877 785.413 251.719 789.092 250.305 791.264C247.394 795.729 246.633 811.468 249.119 815.813C249.883 817.148 251.221 821.858 252.089 826.277C253.866 835.299 255.1 836.075 264.09 833.812C270.351 832.238 273.453 827.586 274.431 818.309C274.829 814.52 276.153 809.522 277.374 807.201C278.591 804.883 279.939 800.099 280.364 796.576C280.793 793.049 282.325 788.374 283.77 786.189C285.36 783.781 286.401 780.131 286.405 776.934C286.412 774.028 287.342 770.026 288.472 768.038C291.027 763.554 295.802 742.477 294.658 740.744C294.194 740.043 293.34 735.485 292.756 730.613C292.172 725.742 290.699 720.337 289.482 718.601C288.268 716.868 286.806 712.682 286.235 709.3C285.661 705.919 284.69 702.838 284.074 702.454C282.446 701.442 279.953 694.094 279.953 690.312C279.953 688.524 278.795 685.812 277.374 684.283C275.956 682.754 274.798 680.207 274.798 678.619C274.798 677.035 273.349 673.192 271.575 670.079C269.802 666.966 268.312 663.329 268.263 661.997C268.045 656.217 266.223 654.73 265.355 659.631ZM390.441 666.811C390.036 668.136 389.293 671.117 388.792 673.438C388.287 675.759 386.797 679.544 385.473 681.855C384.148 684.163 383.066 687.034 383.066 688.23C383.066 689.426 381.977 692.416 380.646 694.876C379.315 697.333 377.804 701.245 377.289 703.566C376.77 705.884 375.608 709.41 374.702 711.398C373.796 713.387 372.341 716.91 371.466 719.231C370.591 721.549 368.977 725.347 367.877 727.665C365.025 733.688 364.945 752.647 367.753 756.659C368.904 758.301 370.574 763.69 371.466 768.639C372.358 773.588 373.938 778.848 374.972 780.325C376.009 781.806 377.168 786.422 377.544 790.589C377.921 794.756 379.246 799.792 380.487 801.78C381.725 803.768 383.066 808.549 383.464 812.406C383.861 816.262 384.861 820.177 385.683 821.105C386.506 822.033 387.913 825.113 388.809 827.952C390.375 832.907 390.683 833.143 396.661 833.948C404.461 834.996 404.655 834.866 405.651 827.961C406.103 824.829 407.397 819.553 408.524 816.24C411.639 807.091 411.304 793.31 407.815 787.065C406.252 784.275 404.976 780.199 404.976 778.007C404.976 775.819 403.818 772.004 402.4 769.528C400.983 767.055 399.821 763.961 399.821 762.655C399.821 761.349 398.372 756.125 396.599 751.05C393.463 742.063 393.376 740.858 393.286 705.518C393.238 685.554 392.744 668.136 392.187 666.811L391.181 664.399L390.441 666.811ZM194.411 678.367C193.961 680.462 193.595 687.351 193.595 693.674C193.595 700 192.378 713.083 190.888 722.748C186.984 748.054 188.298 784.443 194.805 831.284C194.85 831.608 196.191 829.61 197.785 826.849C199.379 824.089 203.393 818.939 206.702 815.406C210.011 811.876 214.056 807.363 215.692 805.381C217.327 803.4 220.543 799.889 222.835 797.581C227.416 792.968 227.478 789.47 223.053 785.336C221.739 784.107 220.664 782.287 220.664 781.292C220.664 780.299 220.138 779.485 219.495 779.485C217.248 779.485 209.212 767.592 208.365 763.014C207.895 760.473 206.744 755.686 205.81 752.369C204.873 749.056 203.732 738.967 203.269 729.947C202.809 720.932 201.841 711.441 201.118 708.861C200.399 706.278 199.03 697.744 198.083 689.892C196.198 674.336 195.645 672.597 194.411 678.367ZM460.77 679.735C457.53 683.607 456.223 691.43 455.089 713.807C454.415 727.064 453.046 741.433 452.047 745.742C451.048 750.051 449.875 756.51 449.443 760.095C448.638 766.774 448.25 767.407 436.879 780.58C429.898 788.665 429.407 791.465 434.05 796.792C435.862 798.874 442.148 806.267 448.019 813.227C453.886 820.187 459.633 826.607 460.78 827.493C463.145 829.316 462.896 829.991 465.617 814.433C467.844 801.722 468.785 716.661 466.772 710.212C465.946 707.574 464.86 699.583 464.359 692.455C463.405 678.943 462.907 677.181 460.77 679.735ZM224.488 814.559C220.612 818.603 216.57 822.815 215.508 823.914C214.444 825.013 210.18 829.662 206.035 834.242L198.494 842.57L198.944 856.551C199.341 868.854 199.742 870.942 202.297 873.975C203.891 875.872 205.195 878.413 205.195 879.629C205.195 880.841 206.996 883.75 209.195 886.094L213.195 890.351H225.708C242.557 890.351 243.566 889.498 245.585 873.48C245.879 871.162 246.899 867.503 247.85 865.347C249.299 862.075 249.302 860.789 247.86 857.514C246.913 855.361 245.616 849.565 244.98 844.635C244.348 839.705 243.023 834.827 242.038 833.79C241.039 832.736 239.69 826.933 238.978 820.613C237.166 804.515 234.981 803.603 224.488 814.559ZM421.265 809.913C420.262 811.404 419.155 816.285 418.803 820.759C418.45 825.233 417.282 830.153 416.203 831.688C415.124 833.227 413.824 837.701 413.312 841.632C412.797 845.563 411.293 850.79 409.965 853.247C406.854 859.024 406.902 864.493 410.107 868.301C411.511 869.969 413.043 874.03 413.509 877.32C414.875 886.951 419.888 890.982 431.855 892.071C437.065 892.546 442.134 893.222 443.113 893.574C444.222 893.972 445.401 892.973 446.231 890.936C446.964 889.133 448.71 886.294 450.114 884.626C451.518 882.958 452.666 880.653 452.666 879.506C452.666 878.361 453.883 875.976 455.369 874.211C457.396 871.802 458.246 868.631 458.765 861.555C459.857 846.64 458.744 842.628 451.193 834.317C447.583 830.341 442.521 824.725 439.946 821.842C425.832 806.031 424.456 805.152 421.265 809.913ZM467.695 880.401C467.357 880.912 466.651 883.466 466.129 886.075C465.604 888.683 464.01 892.666 462.585 894.926C458.395 901.565 459.128 950.191 463.681 967.479C464.639 971.125 466.053 987.266 466.821 1003.35C467.588 1019.44 468.795 1034.03 469.507 1035.77C470.216 1037.51 471.343 1049.03 472.017 1061.36C473.383 1086.41 475.53 1102.61 477.667 1103.94C478.448 1104.42 483.877 1104.83 489.723 1104.84L500.358 1104.86L500.348 1093.11C500.345 1084.39 499.785 1080.42 498.191 1077.74C495.037 1072.45 494.315 1048.96 496.939 1037.25C501.856 1015.32 502.16 951.335 497.392 941.944C495.48 938.175 493.914 934.364 493.914 933.475C493.914 932.589 493.122 930.792 492.157 929.486C489.944 926.486 481.024 906.03 481.024 903.951C481.024 903.101 480.537 902.403 479.942 902.403C478.555 902.403 475.869 896.927 475.869 894.098C475.869 892.905 474.707 890.949 473.29 889.75C471.872 888.551 470.71 886.058 470.71 884.213C470.71 880.896 468.892 878.594 467.695 880.401ZM187.188 890.833C186.299 893.797 184.768 896.513 183.786 896.865C182.8 897.217 181.995 898.582 181.995 899.894C181.995 901.206 180.546 903.741 178.772 905.532C177.002 907.32 175.55 909.715 175.55 910.853C175.55 911.994 174.409 914.279 173.016 915.938C171.622 917.596 170.077 921.33 169.579 924.236C169.081 927.142 167.615 931.144 166.319 933.132C165.022 935.124 163.957 938.527 163.957 940.703C163.954 942.879 163.134 946.483 162.138 948.714C160.679 951.985 160.565 955.525 161.551 967.052C162.221 974.908 163.328 990.285 164.005 1001.22C165.921 1032.03 167.473 1051.92 168.431 1057.87C169.047 1061.7 168.528 1066.07 166.678 1072.69C165.229 1077.85 163.66 1086.25 163.186 1091.35C162.709 1096.46 161.675 1101.4 160.883 1102.33C159.293 1104.2 161.54 1103.98 173.327 1101.11C180.052 1099.48 179.993 1099.57 181.386 1087.6C181.836 1083.74 182.963 1078.86 183.893 1076.76C184.872 1074.53 185.93 1065.07 186.414 1054.24C186.87 1043.97 188.052 1031.77 189.041 1027.13C190.971 1018.08 193.626 992.277 193.605 982.763C193.602 979.572 194.2 975.907 194.936 974.62C195.673 973.333 196.845 961.03 197.543 947.285C198.242 933.536 199.407 920.544 200.136 918.411C201.374 914.806 198.096 900.182 195.068 895.776C194.615 895.113 193.654 892.718 192.938 890.448C191.067 884.516 189.038 884.652 187.188 890.833ZM225.207 903.276C216.684 903.925 215.979 904.682 215.09 914.166C213.749 928.49 208.144 970.43 207.321 972.299C206.885 973.295 205.945 987.392 205.229 1003.63C204.365 1023.31 203.29 1035.12 202 1039.03C199.687 1046.06 198.567 1087.87 200.686 1088.05C201.395 1088.12 202.553 1086.04 203.262 1083.43C203.971 1080.83 205.216 1077.95 206.028 1077.02C206.841 1076.09 208.12 1073.24 208.867 1070.67C209.617 1068.11 211.152 1065.06 212.279 1063.89C213.406 1062.73 214.682 1059.67 215.114 1057.1C215.547 1054.54 216.974 1051.14 218.281 1049.56C219.592 1047.98 220.664 1045.25 220.664 1043.49C220.664 1041.73 221.822 1038.17 223.239 1035.57C224.66 1032.97 225.819 1030.27 225.819 1029.57C225.819 1028.86 228.125 1024.23 230.939 1019.28C238.919 1005.23 239.03 1004.91 240.05 992.784C240.582 986.49 241.782 979.168 242.719 976.518C243.971 972.984 244.437 962.514 244.465 937.351L244.507 903.007L238.062 902.897C234.518 902.836 228.733 903.007 225.207 903.276ZM419.156 905.829C419.156 907.21 417.987 911.263 416.555 914.839C412.998 923.728 412.963 940.027 416.473 956.633C417.945 963.593 419.149 971.555 419.152 974.329C419.152 977.103 419.726 980.772 420.421 982.485C421.116 984.195 422.323 990.602 423.097 996.722C423.944 1003.39 425.714 1010.26 427.516 1013.87C429.168 1017.19 430.928 1021.93 431.426 1024.42C431.924 1026.9 432.844 1028.94 433.473 1028.94C434.099 1028.94 435.579 1032.19 436.761 1036.17C437.944 1040.15 439.34 1043.4 439.863 1043.4C440.381 1043.4 441.533 1046.25 442.414 1049.73C443.299 1053.21 445.097 1057.35 446.411 1058.93C447.725 1060.51 448.8 1062.96 448.8 1064.37C448.8 1065.78 449.92 1068.89 451.286 1071.27C452.655 1073.66 454.17 1077.59 454.657 1080C455.774 1085.57 457.492 1086.62 458.62 1082.42C459.771 1078.14 457.154 1032.81 455.532 1028.94C454.837 1027.28 453.561 1010.74 452.693 992.183C451.76 972.179 450.384 955.761 449.315 951.859C448.323 948.242 447.455 941.191 447.383 936.193C447.313 931.196 446.878 922.5 446.418 916.865L445.578 906.621L439.78 905.684C423.917 903.117 419.156 903.153 419.156 905.829Z" fill="black" fill-opacity="0.93"/>
<path d="M275.93 389.099L289.335 355.585L318.38 343.296H338.489L376.471 361.17L384.291 539.91L360.831 601.352L348.543 616.992H311.678L297.155 601.352L271.461 530.973L275.93 389.099Z" fill="#FF7A00" fill-opacity="0.4"/>
<path d="M856.235 541.131L774.176 590.367L758.858 703.062L764.329 886.875L744.635 960.181L740.258 1169.16H788.4L827.788 1018.17L838.729 886.875L869.365 757.768H900L940.483 886.875L943.765 1018.17L994.095 1169.16H1040.05V989.722L1009.41 849.674L1022.54 714.003L991.907 585.991L915.318 541.131L893.436 611.155H882.494L856.235 541.131Z" fill="#FF0000" fill-opacity="0.4"/>
<path d="M218.956 549.964L269.227 538.793L294.921 608.055L316.146 625.929H346.309L366.417 605.821L380.939 560.019L390.994 541.027L446.85 564.487L475.895 749.93V847.12L501.589 947.661L511.643 1021.39L499.355 1106.29H455.787L420.039 1003.52L407.75 916.381L397.696 847.12L361.948 764.452L346.309 646.037H316.146L307.209 707.479L299.389 777.858L252.47 916.381L240.182 1003.52L214.488 1090.65L159.749 1106.29L163.1 1021.39L159.749 947.661L194.38 847.12L183.208 777.858L196.614 621.46L218.956 549.964Z" fill="#FF0000" fill-opacity="0.4"/>
<path d="M253.587 220.413L297.155 169.025L330.669 203.656L360.831 163.439L401.048 220.413L451.318 239.404L444.616 335.477L382.057 353.351L346.309 337.711H315.029L288.218 348.882L256.939 353.351L215.605 335.477L207.785 239.404L253.587 220.413Z" fill="#3300FF" fill-opacity="0.4"/>
<path d="M764.329 384.672L755.576 334.342L735.882 359.507L716.188 418.59L721.658 430.625L735.882 421.872L764.329 384.672Z" fill="#3300FF" fill-opacity="0.4"/>
<path d="M1011.6 391.237V338.719L1017.07 334.342L1036.77 366.072L1054.27 418.59L1046.61 427.343L1028.01 418.59L1011.6 391.237Z" fill="#3300FF" fill-opacity="0.4"/>
<path d="M213.371 360.053L207.785 345.531L173.154 400.27L167.569 425.964L174.271 428.198L205.551 377.927L213.371 360.053Z" fill="#3300FF" fill-opacity="0.4"/>
<path d="M462.49 370.107L444.616 341.062L441.264 354.468L444.616 372.342L459.138 396.918L478.129 427.081L488.183 425.964V413.675L462.49 370.107Z" fill="#3300FF" fill-opacity="0.4"/>
<path d="M832.165 194.294L858.424 141.776H916.412L945.954 194.294L991.907 217.271L1012.7 284.012L996.283 359.507L977.683 412.025L968.93 462.355L895.624 552.073H877.024L804.812 461.26L796.059 415.307L770.894 336.53L763.235 288.389L781.835 217.271L832.165 194.294Z" fill="#F1CB00" fill-opacity="0.4"/>
<path d="M1061.93 315.742L1014.88 289.483L1011.6 309.177L1014.88 323.401L1040.05 358.413L1049.9 392.331L1069.59 449.225L1083.81 412.025L1079.44 386.86L1061.93 315.742Z" fill="#F1CB00" fill-opacity="0.4"/>
<path d="M759.953 321.213L757.764 285.107L709.623 314.648L700.87 352.942L688.835 402.178L703.058 451.413L731.505 359.507L759.953 321.213Z" fill="#F1CB00" fill-opacity="0.4"/>
<path d="M500.472 337.711L455.787 304.197L446.85 333.242L477.012 389.099L518.346 429.315L521.697 405.855L500.472 337.711Z" fill="#F1CB00" fill-opacity="0.4"/>
<path d="M146.343 363.405L161.983 331.008L198.848 305.314L205.551 331.008L189.911 366.756L149.695 422.612L135.172 412.558L146.343 363.405Z" fill="#F1CB00" fill-opacity="0.4"/>
<path d="M742.447 228.212L716.188 247.906L706.341 262.13L708.529 280.73L711.811 306.989L749.011 282.918L761.047 268.695L766.517 250.095L770.894 221.647L742.447 228.212Z" fill="#00FF29" fill-opacity="0.4"/>
<path d="M1044.42 232.589L1006.13 221.647L1000.66 232.589L1008.32 262.13L1021.45 282.918L1061.93 306.989L1068.5 262.13L1044.42 232.589Z" fill="#00FF29" fill-opacity="0.4"/>
<path d="M157.515 251.692L194.38 232.701L205.551 236.052L199.965 263.981L203.317 294.143L166.452 322.071L157.515 318.72L151.929 261.746L157.515 251.692Z" fill="#00FF29" fill-opacity="0.4"/>
<path d="M489.3 243.872L454.67 232.701L456.904 294.143L498.237 322.071L504.94 303.08V280.737L500.472 256.161L489.3 243.872Z" fill="#00FF29" fill-opacity="0.4"/>
</svg>
